<mxfile host="app.diagrams.net" modified="2020-10-22T11:28:33.500Z" agent="5.0 (Windows)" etag="cQVDPk-gZhkSQSPBt9aY" version="13.8.1" type="github">
  <diagram id="I13QSnIsGBPpUAzB9PyT" name="Page-1">
    <mxGraphModel dx="1422" dy="763" grid="1" gridSize="10" guides="1" tooltips="1" connect="1" arrows="1" fold="1" page="1" pageScale="1" pageWidth="827" pageHeight="1169" math="0" shadow="0">
      <root>
        <mxCell id="0" />
        <mxCell id="1" parent="0" />
        <mxCell id="Mx9_9Knm9UHk2a_ZNlMr-21" value="" style="rounded=0;whiteSpace=wrap;html=1;fontFamily=Linux Libertine;fontSize=12;strokeColor=#b85450;fillColor=#F8CECC;sketch=1;glass=0;shadow=0;" parent="1" vertex="1">
          <mxGeometry x="300" y="160" width="60" height="300" as="geometry" />
        </mxCell>
        <mxCell id="Mx9_9Knm9UHk2a_ZNlMr-3" value="Nachweis Virus-DNA durch PCR" style="curved=1;endArrow=classic;html=1;fontFamily=Linux Libertine;fontSize=12;" parent="1" edge="1">
          <mxGeometry x="-0.8633" y="6" width="50" height="50" relative="1" as="geometry">
            <mxPoint x="150" y="450" as="sourcePoint" />
            <mxPoint x="720" y="460" as="targetPoint" />
            <Array as="points">
              <mxPoint x="400" y="230" />
              <mxPoint x="590" y="330" />
            </Array>
            <mxPoint as="offset" />
          </mxGeometry>
        </mxCell>
        <mxCell id="Mx9_9Knm9UHk2a_ZNlMr-4" value="Tag 0" style="endArrow=classic;html=1;fontFamily=Linux Libertine;fontSize=12;" parent="1" edge="1">
          <mxGeometry x="-0.8667" y="-20" relative="1" as="geometry">
            <mxPoint x="60" y="460" as="sourcePoint" />
            <mxPoint x="810" y="460" as="targetPoint" />
            <mxPoint as="offset" />
          </mxGeometry>
        </mxCell>
        <mxCell id="Mx9_9Knm9UHk2a_ZNlMr-6" value="Exposition" style="edgeLabel;resizable=0;html=1;align=left;verticalAlign=bottom;" parent="Mx9_9Knm9UHk2a_ZNlMr-4" connectable="0" vertex="1">
          <mxGeometry x="-1" relative="1" as="geometry">
            <mxPoint x="30" as="offset" />
          </mxGeometry>
        </mxCell>
        <mxCell id="Mx9_9Knm9UHk2a_ZNlMr-8" value="" style="endArrow=none;dashed=1;html=1;" parent="1" edge="1">
          <mxGeometry width="50" height="50" relative="1" as="geometry">
            <mxPoint x="360" y="520" as="sourcePoint" />
            <mxPoint x="360" y="140" as="targetPoint" />
          </mxGeometry>
        </mxCell>
        <mxCell id="Mx9_9Knm9UHk2a_ZNlMr-9" value="Tag 7" style="text;html=1;strokeColor=none;fillColor=none;align=center;verticalAlign=middle;whiteSpace=wrap;rounded=0;fontFamily=Linux Libertine;" parent="1" vertex="1">
          <mxGeometry x="360" y="470" width="40" height="20" as="geometry" />
        </mxCell>
        <mxCell id="Mx9_9Knm9UHk2a_ZNlMr-10" value="Tag 14" style="text;html=1;strokeColor=none;fillColor=none;align=center;verticalAlign=middle;whiteSpace=wrap;rounded=0;fontFamily=Linux Libertine;" parent="1" vertex="1">
          <mxGeometry x="520" y="470" width="40" height="20" as="geometry" />
        </mxCell>
        <mxCell id="Mx9_9Knm9UHk2a_ZNlMr-11" value="Beginn Symptome" style="text;html=1;strokeColor=none;fillColor=none;align=center;verticalAlign=middle;whiteSpace=wrap;rounded=0;fontFamily=Linux Biolinum;" parent="1" vertex="1">
          <mxGeometry x="340" y="530" width="40" height="20" as="geometry" />
        </mxCell>
        <mxCell id="Mx9_9Knm9UHk2a_ZNlMr-12" value="" style="curved=1;endArrow=classic;html=1;fillColor=#f8cecc;strokeColor=#b85450;strokeWidth=2;" parent="1" edge="1">
          <mxGeometry width="50" height="50" relative="1" as="geometry">
            <mxPoint x="270" y="450" as="sourcePoint" />
            <mxPoint x="650" y="450" as="targetPoint" />
            <Array as="points">
              <mxPoint x="466" y="190" />
            </Array>
          </mxGeometry>
        </mxCell>
        <mxCell id="Mx9_9Knm9UHk2a_ZNlMr-13" value="Antigen-Test" style="text;html=1;strokeColor=none;fillColor=none;align=center;verticalAlign=middle;whiteSpace=wrap;rounded=0;fontFamily=Linux Biolinum;" parent="1" vertex="1">
          <mxGeometry x="400" y="370" width="40" height="20" as="geometry" />
        </mxCell>
        <mxCell id="Mx9_9Knm9UHk2a_ZNlMr-14" value="" style="curved=1;endArrow=classic;html=1;fillColor=#dae8fc;strokeColor=#6c8ebf;strokeWidth=2;" parent="1" edge="1">
          <mxGeometry width="50" height="50" relative="1" as="geometry">
            <mxPoint x="540" y="460" as="sourcePoint" />
            <mxPoint x="820" y="380" as="targetPoint" />
            <Array as="points">
              <mxPoint x="690" y="300" />
            </Array>
          </mxGeometry>
        </mxCell>
        <mxCell id="Mx9_9Knm9UHk2a_ZNlMr-15" value="Antikörper IgM" style="text;html=1;strokeColor=none;fillColor=none;align=center;verticalAlign=middle;whiteSpace=wrap;rounded=0;fontFamily=Linux Libertine;" parent="1" vertex="1">
          <mxGeometry x="750" y="370" width="40" height="20" as="geometry" />
        </mxCell>
        <mxCell id="Mx9_9Knm9UHk2a_ZNlMr-16" value="" style="curved=1;endArrow=classic;html=1;fillColor=#d5e8d4;strokeColor=#82b366;strokeWidth=2;" parent="1" edge="1">
          <mxGeometry width="50" height="50" relative="1" as="geometry">
            <mxPoint x="560" y="460" as="sourcePoint" />
            <mxPoint x="810" y="330" as="targetPoint" />
            <Array as="points">
              <mxPoint x="690" y="330" />
            </Array>
          </mxGeometry>
        </mxCell>
        <mxCell id="Mx9_9Knm9UHk2a_ZNlMr-17" value="Antikörper IgG" style="text;html=1;strokeColor=none;fillColor=none;align=center;verticalAlign=middle;whiteSpace=wrap;rounded=0;fontFamily=Linux Libertine;" parent="1" vertex="1">
          <mxGeometry x="740" y="300" width="40" height="20" as="geometry" />
        </mxCell>
        <mxCell id="Mx9_9Knm9UHk2a_ZNlMr-18" value="Tag 5" style="text;html=1;strokeColor=none;fillColor=none;align=center;verticalAlign=middle;whiteSpace=wrap;rounded=0;fontFamily=Linux Libertine;" parent="1" vertex="1">
          <mxGeometry x="260" y="470" width="40" height="20" as="geometry" />
        </mxCell>
        <mxCell id="Mx9_9Knm9UHk2a_ZNlMr-19" value="Tag 21" style="text;html=1;strokeColor=none;fillColor=none;align=center;verticalAlign=middle;whiteSpace=wrap;rounded=0;fontFamily=Linux Libertine;" parent="1" vertex="1">
          <mxGeometry x="710" y="470" width="40" height="20" as="geometry" />
        </mxCell>
        <mxCell id="Mx9_9Knm9UHk2a_ZNlMr-20" value="&lt;h1&gt;&lt;font face=&quot;Linux Biolinum&quot;&gt;Testmethoden&lt;/font&gt;&lt;/h1&gt;&lt;p&gt;Unterschiedliche Testmethoden zum jeweiligen Zeitpunkt&lt;br&gt;&lt;/p&gt;" style="text;html=1;strokeColor=none;fillColor=none;spacing=5;spacingTop=-20;whiteSpace=wrap;overflow=hidden;rounded=0;fontFamily=Linux Libertine;fontSize=12;" parent="1" vertex="1">
          <mxGeometry x="50" y="160" width="190" height="120" as="geometry" />
        </mxCell>
        <mxCell id="Mx9_9Knm9UHk2a_ZNlMr-25" value="" style="edgeStyle=orthogonalEdgeStyle;rounded=0;orthogonalLoop=1;jettySize=auto;html=1;strokeWidth=2;fontFamily=Linux Libertine;fontSize=12;" parent="1" source="Mx9_9Knm9UHk2a_ZNlMr-24" target="Mx9_9Knm9UHk2a_ZNlMr-21" edge="1">
          <mxGeometry relative="1" as="geometry">
            <Array as="points">
              <mxPoint x="374" y="180" />
              <mxPoint x="374" y="190" />
            </Array>
          </mxGeometry>
        </mxCell>
        <mxCell id="Mx9_9Knm9UHk2a_ZNlMr-24" value="Infektiös ohne Symptome" style="text;html=1;strokeColor=none;fillColor=none;align=center;verticalAlign=middle;whiteSpace=wrap;rounded=0;shadow=0;glass=0;sketch=1;fontFamily=Linux Libertine;fontSize=12;" parent="1" vertex="1">
          <mxGeometry x="394" y="170" width="40" height="20" as="geometry" />
        </mxCell>
      </root>
    </mxGraphModel>
  </diagram>
</mxfile>
